<?xml version="1.0" encoding="utf-8"?>
<!-- Generator: Adobe Illustrator 19.2.0, SVG Export Plug-In . SVG Version: 6.00 Build 0)  -->
<svg version="1.1" id="Layer_1" xmlns="http://www.w3.org/2000/svg" xmlns:xlink="http://www.w3.org/1999/xlink" x="0px" y="0px"
	 viewBox="0 0 108 44.3" style="enable-background:new 0 0 108 44.3;" xml:space="preserve">
<g>
	<g style="opacity:0.2;">
		<path d="M15.7,11.1c-1.9,1.4-3.1,3.7-3.4,7.2c-0.7,9.4,6.4,17.6,15.8,18.3c4,0.3,7.8-0.9,10.8-3L15.7,11.1z"/>
	</g>
	<g style="opacity:0.2;">
		<path d="M65.2,12.2c-2.5,1.7-3.9,4.3-3.6,8.5c0.7,9.4,8.9,16.5,18.3,15.8c2.9-0.2,5.5-1.2,7.8-2.6L65.2,12.2z"/>
	</g>
	<path d="M54,9.5c-7.6,0-9.7-1.8-12.1-2.4c-0.1,0-0.2,0-0.2-0.1c-0.1,0-0.2,0-0.2-0.1c-3.2-1-7.1-1.4-11.3-1.7
		c-3.8-0.3-7.3-0.4-10.4,0C13.4,5.4,9.4,5.9,5,7v7.9c1.5,0,3.1,1.2,3.1,3.5c0.1,10.9,8.5,20,19.5,20.8c11.7,0.9,21.8-7.9,22.7-19.6
		c0.1-1.1-0.1-2-0.3-2.9c-0.5-0.3-0.8-0.7-0.8-1.1c0-1.2,2.1-2.1,4.7-2.1c2.6,0,4.7,0.9,4.7,2.1c0,0.4-0.3,0.8-0.8,1.1
		c-0.1,0.9-0.3,1.8-0.3,2.9c0.9,11.7,11,20.4,22.7,19.6c11-0.8,19.4-10,19.5-20.8c0-2.4,1.7-3.5,3.1-3.5V7
		c-4.4-1.1-8.4-1.6-14.8-1.7c-3.1-0.3-6.6-0.2-10.4,0C73.7,5.6,69.8,6,66.6,7c-0.1,0-0.2,0-0.2,0.1c-0.1,0-0.2,0-0.2,0.1
		C63.7,7.7,61.6,9.5,54,9.5z M28.1,36.6c-9.4-0.7-16.5-8.9-15.8-18.3c0.7-9.4,8.4-9.8,17.8-9.1c9.4,0.7,17,2.2,16.3,11.6
		C45.8,30.2,37.5,37.3,28.1,36.6z M61.6,20.8c-0.7-9.4,6.9-10.9,16.3-11.6c9.4-0.7,17.2-0.3,17.8,9.1c0.7,9.4-6.4,17.6-15.8,18.3
		C70.5,37.3,62.2,30.2,61.6,20.8z"/>
</g>
</svg>
