<svg xmlns="http://www.w3.org/2000/svg" viewBox="0 0 150 150"><defs><style>.cls-1{isolation:isolate;}.cls-2{opacity:0.05;mix-blend-mode:multiply;}.cls-3{fill:#231f20;}</style></defs><title>bg-alt-2</title><g class="cls-1"><g id="Layer_1" data-name="Layer 1"><g class="cls-2"><path class="cls-3" d="M58.5,35H44V20.5a0.5,0.5,0,0,0-.5-0.5h-8a0.5,0.5,0,0,0-.5.5V35H20.5a0.5,0.5,0,0,0-.5.5v8a0.5,0.5,0,0,0,.5.5H35V58.2a0.8,0.8,0,0,0,.8.8h7.72a0.5,0.5,0,0,0,.5-0.5V44H58.2a0.8,0.8,0,0,0,.8-0.8V35.49A0.5,0.5,0,0,0,58.5,35Z"/><path class="cls-3" d="M128.83,35h-38a0.5,0.5,0,0,0-.5.5v8a0.5,0.5,0,0,0,.5.5h37.7a0.8,0.8,0,0,0,.8-0.8V35.49A0.5,0.5,0,0,0,128.83,35Z"/><path class="cls-3" d="M45.88,113.23l10-10a0.8,0.8,0,0,0,0-1.13L50.46,96.6a0.5,0.5,0,0,0-.71,0L39.5,106.85,29.26,96.6a0.5,0.5,0,0,0-.71,0l-5.67,5.67a0.5,0.5,0,0,0,0,.71l10.25,10.25L22.88,123.47a0.5,0.5,0,0,0,0,.71l5.67,5.67a0.5,0.5,0,0,0,.71,0L39.5,119.61l10,10a0.8,0.8,0,0,0,1.13,0l5.46-5.46a0.5,0.5,0,0,0,0-.71Z"/><path class="cls-3" d="M120.78,96.6a0.5,0.5,0,0,0-.71,0L93.2,123.47a0.5,0.5,0,0,0,0,.71l5.67,5.67a0.5,0.5,0,0,0,.71,0l26.66-26.66a0.8,0.8,0,0,0,0-1.13Z"/></g></g></g></svg>