<svg xmlns="http://www.w3.org/2000/svg" viewBox="0 0 150 150"><defs><style>.cls-1{isolation:isolate;}.cls-2{opacity:0.15;}.cls-2,.cls-4{mix-blend-mode:overlay;}.cls-3,.cls-4{fill:#fff;}.cls-4{opacity:0.05;}</style></defs><title>bg-alt</title><g class="cls-1"><g id="Layer_1" data-name="Layer 1"><g class="cls-2"><path class="cls-3" d="M150,75A75,75,0,0,0,75,0,75,75,0,0,0,150,75Z"/><path class="cls-3" d="M75,0A75,75,0,0,0,0,75,75,75,0,0,0,75,0Z"/><path class="cls-3" d="M0,75a75,75,0,0,0,75,75A75,75,0,0,0,0,75Z"/><path class="cls-3" d="M75,150a75,75,0,0,0,75-75A75,75,0,0,0,75,150Z"/></g><path class="cls-4" d="M150,75A75,75,0,0,1,75,0,75,75,0,0,1,0,75a75,75,0,0,1,75,75A75,75,0,0,1,150,75Z"/></g></g></svg>