<svg xmlns="http://www.w3.org/2000/svg" viewBox="0 0 200 200"><defs><style>.cls-1{isolation:isolate;}.cls-2{opacity:0.05;mix-blend-mode:multiply;}</style></defs><title>bg</title><g class="cls-1"><g id="Layer_1" data-name="Layer 1"><rect class="cls-2" x="4.89" y="4.89" width="23.62" height="23.62" transform="translate(16.71 -6.92) rotate(45)"/><rect class="cls-2" x="4.89" y="38.21" width="23.62" height="23.62" transform="translate(40.26 2.84) rotate(45)"/><rect class="cls-2" x="4.89" y="71.53" width="23.62" height="23.62" transform="translate(63.82 12.6) rotate(45)"/><rect class="cls-2" x="4.89" y="104.85" width="23.62" height="23.62" transform="translate(87.38 22.36) rotate(45)"/><rect class="cls-2" x="4.89" y="138.16" width="23.62" height="23.62" transform="translate(110.94 32.11) rotate(45)"/><rect class="cls-2" x="4.89" y="171.48" width="23.62" height="23.62" transform="translate(134.5 41.87) rotate(45)"/><rect class="cls-2" x="38.21" y="4.89" width="23.62" height="23.62" transform="translate(26.46 -30.48) rotate(45)"/><rect class="cls-2" x="38.21" y="38.21" width="23.62" height="23.62" transform="translate(50.02 -20.72) rotate(45)"/><rect class="cls-2" x="38.21" y="71.53" width="23.62" height="23.62" transform="translate(73.58 -10.96) rotate(45)"/><rect class="cls-2" x="38.21" y="104.85" width="23.62" height="23.62" transform="translate(97.14 -1.2) rotate(45)"/><rect class="cls-2" x="38.21" y="138.16" width="23.62" height="23.62" transform="translate(120.7 8.56) rotate(45)"/><rect class="cls-2" x="38.21" y="171.48" width="23.62" height="23.62" transform="translate(144.26 18.31) rotate(45)"/><rect class="cls-2" x="71.53" y="4.89" width="23.62" height="23.62" transform="translate(36.22 -54.04) rotate(45)"/><rect class="cls-2" x="71.53" y="38.21" width="23.62" height="23.62" transform="translate(59.78 -44.28) rotate(45)"/><rect class="cls-2" x="71.53" y="71.53" width="23.62" height="23.62" transform="translate(83.34 -34.52) rotate(45)"/><rect class="cls-2" x="71.53" y="104.85" width="23.62" height="23.62" transform="translate(106.9 -24.76) rotate(45)"/><rect class="cls-2" x="71.53" y="138.16" width="23.62" height="23.62" transform="translate(130.46 -15) rotate(45)"/><rect class="cls-2" x="71.53" y="171.48" width="23.62" height="23.62" transform="translate(154.02 -5.25) rotate(45)"/><rect class="cls-2" x="104.85" y="4.89" width="23.62" height="23.62" transform="translate(45.98 -77.6) rotate(45)"/><rect class="cls-2" x="104.85" y="38.21" width="23.62" height="23.62" transform="translate(69.54 -67.84) rotate(45)"/><rect class="cls-2" x="104.85" y="71.53" width="23.62" height="23.62" transform="translate(93.1 -58.08) rotate(45)"/><rect class="cls-2" x="104.85" y="104.85" width="23.62" height="23.62" transform="translate(116.66 -48.32) rotate(45)"/><rect class="cls-2" x="104.85" y="138.16" width="23.62" height="23.62" transform="translate(140.22 -38.56) rotate(45)"/><rect class="cls-2" x="104.85" y="171.48" width="23.62" height="23.62" transform="translate(163.78 -28.8) rotate(45)"/><rect class="cls-2" x="138.16" y="4.89" width="23.62" height="23.62" transform="translate(55.74 -101.16) rotate(45)"/><rect class="cls-2" x="138.16" y="38.21" width="23.62" height="23.62" transform="translate(79.3 -91.4) rotate(45)"/><rect class="cls-2" x="138.16" y="71.53" width="23.62" height="23.62" transform="translate(102.86 -81.64) rotate(45)"/><rect class="cls-2" x="138.16" y="104.85" width="23.62" height="23.62" transform="translate(126.42 -71.88) rotate(45)"/><rect class="cls-2" x="138.16" y="138.16" width="23.62" height="23.62" transform="translate(149.98 -62.12) rotate(45)"/><rect class="cls-2" x="138.16" y="171.48" width="23.62" height="23.62" transform="translate(173.54 -52.36) rotate(45)"/><rect class="cls-2" x="171.48" y="4.89" width="23.62" height="23.62" transform="translate(65.5 -124.72) rotate(45)"/><rect class="cls-2" x="171.48" y="38.21" width="23.62" height="23.62" transform="translate(89.06 -114.96) rotate(45)"/><rect class="cls-2" x="171.48" y="71.53" width="23.62" height="23.62" transform="translate(112.62 -105.2) rotate(45)"/><rect class="cls-2" x="171.48" y="104.85" width="23.62" height="23.62" transform="translate(136.18 -95.44) rotate(45)"/><rect class="cls-2" x="171.48" y="138.16" width="23.62" height="23.62" transform="translate(159.74 -85.68) rotate(45)"/><rect class="cls-2" x="171.48" y="171.48" width="23.62" height="23.62" transform="translate(183.29 -75.92) rotate(45)"/></g></g></svg>